<?xml version="1.0" encoding="UTF-8"?><svg xmlns="http://www.w3.org/2000/svg" viewBox="0 0 2048 2048"><defs><style>.c{stroke-width:3px;}.c,.d,.e,.f,.g,.h,.i,.j,.k{stroke-miterlimit:10;}.c,.d,.e,.g,.h,.i{fill:none;}.c,.e,.g,.h,.i{stroke:#fff;}.d,.j{stroke:#a31621;}.d,.j,.k{stroke-width:6px;}.l{fill:#fff;}.m,.f{fill:#1c262b;}.n{fill:#5b6185;}.o{fill:#2e3b49;}.e{stroke-width:.1px;}.f{stroke:#5b6185;stroke-linecap:round;stroke-width:10px;}.g{stroke-width:2px;}.h{stroke-width:4px;}.j{fill:rgba(219,34,42,.5);}.k{fill:rgba(38,191,111,.5);stroke:#49913f;}</style></defs><g id="a"><rect class="o" width="2048" height="2048"/></g><g id="b"><rect class="o" x="1792" y="256" width="256" height="256"/><rect class="f" x="1056" y="288" width="704" height="704"/><polyline class="m" points="512 32 1024 32 1024 480 512 480"/><line class="f" x1="544" y1="32" x2="992" y2="32"/><line class="f" x1="992" y1="480" x2="544" y2="480"/><polyline class="m" points="480 512 477.57 1024 33.04 1024 32 512"/><line class="f" x1="480" y1="544" x2="480" y2="992"/><rect class="m" x="544" y="544" width="448" height="448" rx="87.99" ry="87.99"/><line class="f" x1="32" y1="992" x2="32" y2="544"/><polyline class="f" points="544 736 544 544 736 544"/><polyline class="f" points="800 992 544 992 544 800"/><polyline class="f" points="992 800 992 992 800 992"/><polyline class="f" points="736 544 992 544 992 736"/><rect class="m" x="32" y="32" width="448" height="448"/><polyline class="f" points="32 288 32 32 224 32"/><polyline class="f" points="224 480 32 480 32 288"/><polyline class="f" points="480 288 480 480 288 480"/><polyline class="f" points="288 32 480 32 480 288"/><rect class="m" x="1024" y="32" width="256" height="224"/><rect class="m" x="1312" y="0" width="224" height="256"/><rect class="m" x="1536" y="0" width="257.28" height="224"/><rect class="m" x="1792" y="0" width="224" height="256"/><polyline class="m" points="480 1056 477.57 1504 33.04 1504 32 1056"/><line class="f" x1="480" y1="1056" x2="480" y2="1504"/><line class="f" x1="32" y1="1504" x2="32" y2="1056"/><polyline class="m" points="992 1504 544 1501.57 544 1057.04 992 1056"/><line class="f" x1="992" y1="1504" x2="544" y2="1504"/><line class="f" x1="544" y1="1056" x2="992" y2="1056"/><polyline class="f" points="1248 1248 1056 1248 1056 1056 1248 1056"/><polyline class="f" points="1312 1248 1312 1056 1504 1056 1504 1248"/><polyline class="f" points="1056 1312 1248 1312 1248 1504 1056 1504"/><polyline class="f" points="1504 1312 1504 1504 1312 1504 1312 1312"/><circle class="j" cx="128" cy="1664" r="64"/><rect class="k" x="320" y="1600" width="128" height="128"/><circle class="j" cx="640" cy="1664" r="64"/><line class="d" x1="576" y1="1728" x2="704" y2="1600"/><rect class="n" x="1808" y="528" width="32" height="32"/><rect x="1910.64" y="816" width="18.72" height="32"/><line class="c" x1="1929.36" y1="816" x2="1929.36" y2="848"/><rect x="1865.39" y="834.75" width="18.72" height="32" transform="translate(-52.47 1574.82) rotate(-45)"/><line class="h" x1="1870.05" y1="832.81" x2="1892.68" y2="855.44"/><rect x="1846.64" y="880" width="18.72" height="32" transform="translate(960 2752) rotate(-90)"/><line class="c" x1="1840" y1="886.64" x2="1872" y2="886.64"/><rect x="1865.39" y="925.25" width="18.72" height="32" transform="translate(2534.82 2932.47) rotate(-135)"/><line class="g" x1="1856.81" y1="945.95" x2="1879.44" y2="923.32"/><rect x="1910.64" y="944" width="18.72" height="32" transform="translate(3840 1920) rotate(-180)"/><line class="i" x1="1910.64" y1="976" x2="1910.64" y2="944"/><rect x="1955.9" y="925.25" width="18.72" height="32" transform="translate(4020.47 217.18) rotate(135)"/><line class="e" x1="1969.95" y1="959.19" x2="1947.32" y2="936.56"/><rect x="1974.64" y="880" width="18.72" height="32" transform="translate(2880 -1088) rotate(90)"/><line class="i" x1="2000" y1="905.36" x2="1968" y2="905.36"/><rect x="1955.9" y="834.75" width="18.72" height="32" transform="translate(1177.18 -1140.47) rotate(45)"/><line class="g" x1="1983.19" y1="846.05" x2="1960.56" y2="868.68"/><g><circle cx="1920" cy="896" r="64"/><path class="l" d="M1985.95,896c-.97,57.7-70.38,85.68-111.22,45.26-40.4-41.02-12.31-109.79,45.26-110.95,36.25-.61,66.66,29.3,65.95,65.69h0Zm-3.91,0c-.55-43.81-45.16-74.21-86.03-57.91-23.38,8.96-39.72,32.85-39.76,57.91-.39,45.47,46.17,76.61,87.97,58.48,22.83-9.7,38.45-33.7,37.82-58.48h0Z"/></g></g></svg>